#N canvas 14 60 521 668 12;
#X declare -path else;
#X obj 165 521 nilwind/midiflush;
#X obj 165 547 nilwind/midiparse;
#N canvas 638 210 345 266 polysynth 0;
#X obj 65 20 inlet;
#N canvas 667 245 370 323 synth 0;
#X obj 234 124 / 127;
#X obj 219 204 *~;
#X obj 81 134 phasor~;
#X obj 81 102 mtof;
#X obj 81 31 inlet;
#X obj 219 273 outlet~;
#X obj 81 70 unpack float float;
#X obj 234 174 vline~;
#X msg 234 149 \$1 50;
#X obj 81 162 cyclone/triangle~ 0.9;
#X obj 219 236 /~ 3;
#X connect 0 0 8 0;
#X connect 1 0 10 0;
#X connect 2 0 9 0;
#X connect 3 0 2 0;
#X connect 4 0 6 0;
#X connect 6 0 3 0;
#X connect 6 1 0 0;
#X connect 7 0 1 1;
#X connect 8 0 7 0;
#X connect 9 0 1 0;
#X connect 10 0 5 0;
#X restore 41 151 pd synth;
#X obj 65 84 pack f f f;
#X obj 100 207 outlet~;
#N canvas 667 245 370 323 synth 0;
#X obj 234 124 / 127;
#X obj 219 204 *~;
#X obj 81 134 phasor~;
#X obj 81 102 mtof;
#X obj 81 31 inlet;
#X obj 219 273 outlet~;
#X obj 81 70 unpack float float;
#X obj 234 174 vline~;
#X msg 234 149 \$1 50;
#X obj 81 162 cyclone/triangle~ 0.9;
#X obj 219 236 /~ 3;
#X connect 0 0 8 0;
#X connect 1 0 10 0;
#X connect 2 0 9 0;
#X connect 3 0 2 0;
#X connect 4 0 6 0;
#X connect 6 0 3 0;
#X connect 6 1 0 0;
#X connect 7 0 1 1;
#X connect 8 0 7 0;
#X connect 9 0 1 0;
#X connect 10 0 5 0;
#X restore 100 151 pd synth;
#N canvas 667 245 370 323 synth 0;
#X obj 234 124 / 127;
#X obj 219 204 *~;
#X obj 81 134 phasor~;
#X obj 81 102 mtof;
#X obj 81 31 inlet;
#X obj 219 273 outlet~;
#X obj 81 70 unpack float float;
#X obj 234 174 vline~;
#X msg 234 149 \$1 50;
#X obj 81 162 cyclone/triangle~ 0.9;
#X obj 219 236 /~ 3;
#X connect 0 0 8 0;
#X connect 1 0 10 0;
#X connect 2 0 9 0;
#X connect 3 0 2 0;
#X connect 4 0 6 0;
#X connect 6 0 3 0;
#X connect 6 1 0 0;
#X connect 7 0 1 1;
#X connect 8 0 7 0;
#X connect 9 0 1 0;
#X connect 10 0 5 0;
#X restore 161 152 pd synth;
#X text 124 19 3-voice polyphonic synth;
#X obj 65 115 route 1 2 3, f 18;
#X obj 65 52 poly 3 1;
#X connect 0 0 8 0;
#X connect 1 0 3 0;
#X connect 2 0 7 0;
#X connect 4 0 3 0;
#X connect 5 0 3 0;
#X connect 7 0 1 0;
#X connect 7 1 4 0;
#X connect 7 2 5 0;
#X connect 8 0 2 0;
#X connect 8 1 2 1;
#X connect 8 2 2 2;
#X restore 165 570 pd polysynth;
#X msg 20 451 stop;
#X msg 87 409 continue;
#X obj 167 337 metro;
#X msg 167 370 tick;
#X obj 199 313 nbx 7 14 -1e+37 1e+37 0 0 empty empty empty 0 -8 0 10
-228856 -1 -1 24.0385 256;
#X obj 199 286 expr 60000 / ($f1 * 24);
#X obj 199 267 nbx 3 14 30 240 0 0 empty empty empty 0 -8 0 10 -257985
-1 -1 104 256;
#X floatatom 199 235 5 0 0 0 - - -;
#X obj 142 197 + 5;
#X msg 142 167 5;
#X obj 142 136 bng 23 250 50 0 empty empty 5> 4 9 0 10 -258113 -262144
-262144;
#X obj 202 115 hsl 160 15 60 220 0 0 empty empty empty -2 -8 0 10 -257985
-1 -1 4475 1;
#X obj 199 160 int;
#X msg 94 167 -5;
#X obj 94 137 bng 23 250 50 0 empty empty <5 4 9 0 10 -258113 -262144
-262144;
#X obj 199 51 loadbang;
#X obj 106 322 tgl 15 0 empty empty empty 17 7 0 10 -262144 -1 -1 1
1;
#X msg 199 80 100;
#X obj 106 294 loadbang;
#X msg 219 370 read;
#X obj 247 198 + 1;
#X msg 247 167 -1;
#X msg 284 166 1;
#X obj 284 136 bng 23 250 50 0 empty empty 1> 4 9 0 10 -258113 -262144
-262144;
#X obj 247 136 bng 23 250 50 0 empty empty <1 4 9 0 10 -258113 -262144
-262144;
#X obj 110 526 print;
#X obj 20 491 midiout;
#X obj 165 471 nilwind/seq;
#X msg 20 383 start -1;
#X obj 165 594 ./out~;
#X obj 358 29 declare -path else;
#X msg 107 373 pause;
#X obj 20 421 bng 15 250 50 0 empty empty empty 17 7 0 10 -262144 -1
-1;
#X msg 279 374 record;
#X msg 319 399 stop record;
#X msg 324 431 write test1.mid;
#X msg 324 458 read test1.mid;
#X connect 0 0 1 0;
#X connect 1 0 2 0;
#X connect 2 0 32 0;
#X connect 2 0 32 1;
#X connect 3 0 30 0;
#X connect 3 0 29 0;
#X connect 3 0 0 0;
#X connect 4 0 30 0;
#X connect 5 0 6 0;
#X connect 6 0 30 0;
#X connect 7 0 5 1;
#X connect 8 0 7 0;
#X connect 9 0 8 0;
#X connect 10 0 11 1;
#X connect 10 0 9 0;
#X connect 10 0 23 1;
#X connect 11 0 10 0;
#X connect 11 0 14 0;
#X connect 12 0 11 0;
#X connect 13 0 12 0;
#X connect 14 0 15 0;
#X connect 15 0 10 0;
#X connect 16 0 11 0;
#X connect 17 0 16 0;
#X connect 18 0 20 0;
#X connect 19 0 5 0;
#X connect 20 0 14 0;
#X connect 21 0 19 0;
#X connect 22 0 30 0;
#X connect 23 0 14 0;
#X connect 23 0 10 0;
#X connect 24 0 23 0;
#X connect 25 0 23 0;
#X connect 26 0 25 0;
#X connect 27 0 24 0;
#X connect 30 0 28 0;
#X connect 30 0 29 0;
#X connect 30 0 0 0;
#X connect 31 0 30 0;
#X connect 34 0 30 0;
#X connect 35 0 30 0;
#X connect 36 0 30 0;
#X connect 37 0 30 0;
#X connect 38 0 30 0;
#X connect 39 0 30 0;
